<svg version="1.1" xmlns="http://www.w3.org/2000/svg" viewBox="0 0 1236.25 465" width="1236.25" height="465" filter="invert(93%) hue-rotate(180deg)">
  <!-- svg-source:excalidraw -->
  
  <defs>
    <style class="style-fonts">
      @font-face {
        font-family: "Virgil";
        src: url("https://excalidraw.com/Virgil.woff2");
      }
      @font-face {
        font-family: "Cascadia";
        src: url("https://excalidraw.com/Cascadia.woff2");
      }
    </style>
    
  </defs>
  <g stroke-linecap="round" transform="translate(998.75 13.75) rotate(0 113.75 65)"><path d="M32 0 M32 0 C84.71 1.14, 140.97 -0.04, 195.5 0 M32 0 C77.49 0.25, 121.88 1.32, 195.5 0 M195.5 0 C215.26 1.91, 226.23 10.63, 227.5 32 M195.5 0 C217.39 -1.87, 226.56 11.71, 227.5 32 M227.5 32 C228.16 53.09, 228.64 74.24, 227.5 98 M227.5 32 C227.32 52.17, 226.77 71.68, 227.5 98 M227.5 98 C225.69 118.69, 216.45 128.56, 195.5 130 M227.5 98 C228.73 119.87, 217.27 131.28, 195.5 130 M195.5 130 C163.12 129.58, 125.41 128.53, 32 130 M195.5 130 C159.77 130.36, 125.96 130.14, 32 130 M32 130 C9.74 130.32, -1.05 121.15, 0 98 M32 130 C11.3 127.84, 0.33 120.84, 0 98 M0 98 C0.02 83.82, 0.21 71.6, 0 32 M0 98 C-0.61 78.4, -0.08 56.33, 0 32 M0 32 C0.36 11.53, 10.72 -0.62, 32 0 M0 32 C1.17 10.48, 8.98 -2.24, 32 0" stroke="#1971c2" stroke-width="1" fill="none"></path></g><g transform="translate(1031.308334350586 66.25) rotate(0 81.19166564941406 12.5)"><text x="81.19166564941406" y="0" font-family="Virgil, Segoe UI Emoji" font-size="20px" fill="#1971c2" text-anchor="middle" style="white-space: pre;" direction="ltr" dominant-baseline="text-before-edge">FormaPagamento</text></g><g stroke-linecap="round" transform="translate(353.75 10) rotate(0 113.75 65)"><path d="M32 0 M32 0 C85.53 -0.38, 137.34 2.72, 195.5 0 M32 0 C85.4 -0.52, 139.68 -2.16, 195.5 0 M195.5 0 C215.67 -1.31, 228.99 12.19, 227.5 32 M195.5 0 C217.15 1.71, 225.34 10.86, 227.5 32 M227.5 32 C226.58 55.14, 226.75 80.34, 227.5 98 M227.5 32 C227.91 56.9, 227.73 79.38, 227.5 98 M227.5 98 C227.77 120.78, 215.72 131.41, 195.5 130 M227.5 98 C228.28 117.19, 216.19 131.1, 195.5 130 M195.5 130 C137.9 130.55, 76.06 130.92, 32 130 M195.5 130 C131.29 130.86, 68.21 130.6, 32 130 M32 130 C9.77 128.74, -0.18 118.74, 0 98 M32 130 C9.97 130.82, -1.48 118.77, 0 98 M0 98 C1.08 80.47, -1.49 59.64, 0 32 M0 98 C0.22 83.39, 1.47 68.22, 0 32 M0 32 C-1.81 9.43, 10.38 0.8, 32 0 M0 32 C-1.01 11.64, 11.43 -1.1, 32 0" stroke="#1971c2" stroke-width="1" fill="none"></path></g><g transform="translate(371.375 50) rotate(0 96.125 25)"><text x="96.125" y="0" font-family="Virgil, Segoe UI Emoji" font-size="20px" fill="#1971c2" text-anchor="middle" style="white-space: pre;" direction="ltr" dominant-baseline="text-before-edge">PagamentoStrategy</text><text x="96.125" y="25" font-family="Virgil, Segoe UI Emoji" font-size="20px" fill="#1971c2" text-anchor="middle" style="white-space: pre;" direction="ltr" dominant-baseline="text-before-edge">Interface</text></g><g stroke-linecap="round" transform="translate(10 325) rotate(0 113.75 65)"><path d="M32 0 M32 0 C82.84 -2.13, 138.12 -1.73, 195.5 0 M32 0 C92.81 0.14, 154.96 -0.34, 195.5 0 M195.5 0 C217.85 -0.39, 225.9 9.51, 227.5 32 M195.5 0 C218.14 0.51, 227.28 12.82, 227.5 32 M227.5 32 C228.49 56.44, 227.69 81.23, 227.5 98 M227.5 32 C226.44 46.76, 227.18 59.35, 227.5 98 M227.5 98 C228.41 120.86, 217.67 130.88, 195.5 130 M227.5 98 C228.35 121.03, 215.64 130.49, 195.5 130 M195.5 130 C135.66 128.44, 72.42 128.99, 32 130 M195.5 130 C160.63 132.08, 126.76 132.1, 32 130 M32 130 C10.48 128.02, -1.15 118.58, 0 98 M32 130 C11.52 131.71, -0.75 121.29, 0 98 M0 98 C-1.47 79.23, -1.39 64.33, 0 32 M0 98 C-0.79 78.68, -0.17 57.59, 0 32 M0 32 C0.92 12.17, 11.4 1.66, 32 0 M0 32 C-0.26 8.62, 9.73 0.28, 32 0" stroke="#1971c2" stroke-width="1" fill="none"></path></g><g transform="translate(39.40833282470703 377.5) rotate(0 84.34166717529297 12.5)"><text x="84.34166717529297" y="0" font-family="Virgil, Segoe UI Emoji" font-size="20px" fill="#1971c2" text-anchor="middle" style="white-space: pre;" direction="ltr" dominant-baseline="text-before-edge">PagamentoDebito</text></g><g stroke-linecap="round"><g transform="translate(157.4643703997176 321.25) rotate(0 101.17913786474193 -87.90830678194763)"><path d="M1.01 0.01 C34.83 -29.16, 168.89 -146.76, 202.28 -175.82 M0.08 -1.04 C33.79 -30, 167.33 -145.49, 201.27 -174.72" stroke="#1971c2" stroke-width="1" fill="none"></path></g><g transform="translate(157.4643703997176 321.25) rotate(0 101.17913786474193 -87.90830678194763)"><path d="M201.5 -175.4 L196.6 -162.52 L188.55 -172.47 L200.83 -174.04" stroke="none" stroke-width="0" fill="#1971c2" fill-rule="evenodd"></path><path d="M201.28 -174.87 C198.64 -172.59, 198.92 -168.31, 194.01 -160.35 M201.18 -175.38 C198.71 -169.44, 196.02 -164.09, 195.04 -161.28 M195.73 -160.68 C191.52 -163.83, 189.6 -166.81, 187.75 -170.56 M195.32 -160.61 C192.22 -163.52, 190.44 -165.94, 186.57 -171.23 M187.87 -171.69 C189.79 -171.95, 194.4 -173.37, 202.55 -173.77 M187.44 -170.18 C191.47 -172.37, 197.01 -173.7, 201.07 -174.21 M201.27 -174.72 C201.27 -174.72, 201.27 -174.72, 201.27 -174.72 M201.27 -174.72 C201.27 -174.72, 201.27 -174.72, 201.27 -174.72" stroke="#1971c2" stroke-width="1" fill="none"></path></g></g><mask></mask><g stroke-linecap="round" transform="translate(308.75 321.25) rotate(0 113.75 65)"><path d="M32 0 M32 0 C89.64 -2.71, 148.54 -1.81, 195.5 0 M32 0 C81.74 -0.38, 129.45 -1.59, 195.5 0 M195.5 0 C215.51 -1.5, 225.88 11.54, 227.5 32 M195.5 0 C217.76 0.97, 226.4 12.83, 227.5 32 M227.5 32 C228.15 56.79, 228.42 82.78, 227.5 98 M227.5 32 C228.16 49.67, 227.73 67.07, 227.5 98 M227.5 98 C225.99 119.8, 218.74 129.99, 195.5 130 M227.5 98 C226.92 120.1, 218.14 130.65, 195.5 130 M195.5 130 C150.75 127.03, 108.44 129.26, 32 130 M195.5 130 C136.85 128.65, 76.99 129.78, 32 130 M32 130 C12.16 129.57, 1.46 117.55, 0 98 M32 130 C8.74 129.37, -1.75 119.55, 0 98 M0 98 C-0.95 84.8, -1.95 71.07, 0 32 M0 98 C-0.34 83.36, -0.49 69.1, 0 32 M0 32 C-1.03 12.27, 9.09 -0.33, 32 0 M0 32 C-2.29 8.79, 11.11 1.96, 32 0" stroke="#1971c2" stroke-width="1" fill="none"></path></g><g transform="translate(334.6083297729492 373.75) rotate(0 87.89167022705078 12.5)"><text x="87.89167022705078" y="0" font-family="Virgil, Segoe UI Emoji" font-size="20px" fill="#1971c2" text-anchor="middle" style="white-space: pre;" direction="ltr" dominant-baseline="text-before-edge">PagamentoCredito</text></g><g stroke-linecap="round"><g transform="translate(457.8116862695292 315) rotate(0 0.17640263237973386 -84.24389930652922)"><path d="M0.11 -0.71 C-0.18 -28.85, -0.72 -141.76, -0.68 -170.02 M-1.29 1.53 C-1.28 -26.31, 1.48 -140.05, 1.65 -168.49" stroke="#1971c2" stroke-width="1" fill="none"></path></g><g transform="translate(457.8116862695292 315) rotate(0 0.17640263237973386 -84.24389930652922)"><path d="M1.4 -169.45 L6.58 -156.44 L-5.22 -155.25 L3.56 -170.38" stroke="none" stroke-width="0" fill="#1971c2" fill-rule="evenodd"></path><path d="M0.76 -169.4 C3.86 -162.86, 5.9 -157.37, 8.57 -153.74 M2.17 -168.65 C3.38 -165.1, 5.28 -160.83, 8.43 -154.27 M8.69 -154.53 C2.14 -154.91, -3.13 -155.67, -4.46 -154.96 M7.24 -154.61 C4.17 -154.76, -0.09 -154.25, -5.04 -154.94 M-5.19 -155.27 C-1.92 -159.12, 1.64 -164.45, 0.69 -169.34 M-4.99 -154.57 C-3.8 -157.93, -1.35 -161.65, 1.4 -168.22 M1.65 -168.49 C1.65 -168.49, 1.65 -168.49, 1.65 -168.49 M1.65 -168.49 C1.65 -168.49, 1.65 -168.49, 1.65 -168.49" stroke="#1971c2" stroke-width="1" fill="none"></path></g></g><mask></mask><g stroke-linecap="round" transform="translate(598.75 318.75) rotate(0 113.75 65)"><path d="M32 0 M32 0 C89.1 2.52, 147.38 1.54, 195.5 0 M32 0 C92.9 -0.78, 153.65 -0.93, 195.5 0 M195.5 0 C218.55 -1.7, 227.87 12.18, 227.5 32 M195.5 0 C215.89 -0.08, 228.04 8.58, 227.5 32 M227.5 32 C225.67 50.21, 225.94 67.02, 227.5 98 M227.5 32 C228.05 49.66, 227.9 68.42, 227.5 98 M227.5 98 C229.28 120.69, 217.73 131.13, 195.5 130 M227.5 98 C229.47 119.03, 218.04 128.42, 195.5 130 M195.5 130 C150.92 127.98, 104.28 128.42, 32 130 M195.5 130 C157.56 129.71, 121.16 129.39, 32 130 M32 130 C10.7 131.42, -0.5 119.44, 0 98 M32 130 C11.46 129.82, -1.47 118.42, 0 98 M0 98 C0.7 80.43, 0.2 61.49, 0 32 M0 98 C1.24 82.84, -0.1 68.06, 0 32 M0 32 C-0.21 12.09, 11.97 -0.11, 32 0 M0 32 C0.4 9.53, 8.43 -1.48, 32 0" stroke="#1971c2" stroke-width="1" fill="none"></path></g><g transform="translate(641.8499984741211 371.25) rotate(0 70.6500015258789 12.5)"><text x="70.6500015258789" y="0" font-family="Virgil, Segoe UI Emoji" font-size="20px" fill="#1971c2" text-anchor="middle" style="white-space: pre;" direction="ltr" dominant-baseline="text-before-edge">PagamentoPIX</text></g><g stroke-linecap="round"><g transform="translate(724.9102536022726 313.75) rotate(0 -91.0413749259335 -86.57313089539298)"><path d="M-0.7 -0.86 C-31.08 -29.6, -152.84 -143.69, -183.21 -172.47 M1.13 1.3 C-28.8 -27.81, -150.78 -145.45, -181.04 -174.45" stroke="#1971c2" stroke-width="1" fill="none"></path></g><g transform="translate(724.9102536022726 313.75) rotate(0 -91.0413749259335 -86.57313089539298)"><path d="M-182.7 -175.36 L-168.22 -168.18 L-177.46 -160.9 L-180.46 -175.99" stroke="none" stroke-width="0" fill="#1971c2" fill-rule="evenodd"></path><path d="M-182.12 -175.74 C-177.59 -174.25, -175.83 -171.85, -168.34 -169.56 M-180.78 -174.51 C-176.27 -172.95, -170.61 -170.92, -167.28 -169.35 M-167.72 -170.12 C-169.86 -164.88, -173.28 -163.15, -174.86 -160.59 M-166.74 -169.9 C-170.67 -166.61, -172.72 -163.22, -175.86 -160.19 M-176.95 -161.61 C-177.37 -164.24, -178.76 -168.71, -180.52 -173.48 M-175.13 -160.56 C-176.32 -163.6, -178.5 -168.13, -181.2 -174.79 M-181.04 -174.45 C-181.04 -174.45, -181.04 -174.45, -181.04 -174.45 M-181.04 -174.45 C-181.04 -174.45, -181.04 -174.45, -181.04 -174.45" stroke="#1971c2" stroke-width="1" fill="none"></path></g></g><mask></mask><g stroke-linecap="round"><g transform="translate(993.75 70.83342551866201) rotate(0 -204.02429720153572 -0.5325764335431984)"><path d="M0.6 -0.72 C-67.37 -1.33, -339.92 -2.42, -408.06 -2.58 M-0.55 1.51 C-68.6 1.63, -340.61 -0.19, -408.65 -1.05" stroke="#1971c2" stroke-width="1" fill="none"></path></g><g transform="translate(993.75 70.83342551866201) rotate(0 -204.02429720153572 -0.5325764335431984)"><path d="M-381.57 -9.9 C-388.2 -7.31, -394.67 -5.79, -410.15 0.38 M-380.02 -10.09 C-388.49 -8.12, -396.81 -5.61, -408.74 -0.48" stroke="#1971c2" stroke-width="1" fill="none"></path></g><g transform="translate(993.75 70.83342551866201) rotate(0 -204.02429720153572 -0.5325764335431984)"><path d="M-381.75 10.62 C-388.51 7.47, -394.94 3.24, -410.15 0.38 M-380.21 10.44 C-388.72 6.14, -396.98 2.39, -408.74 -0.48" stroke="#1971c2" stroke-width="1" fill="none"></path></g></g><mask></mask><g transform="translate(317.5 211.25) rotate(0 131.30833435058594 21.86771387326303)"><text x="0" y="0" font-family="Virgil, Segoe UI Emoji" font-size="34.988342197220874px" fill="#1971c2" text-anchor="start" style="white-space: pre;" direction="ltr" dominant-baseline="text-before-edge">Implementações</text></g><g transform="translate(755 42.5) rotate(0 19.241666793823242 12.5)"><text x="0" y="0" font-family="Virgil, Segoe UI Emoji" font-size="20px" fill="#1971c2" text-anchor="start" style="white-space: pre;" direction="ltr" dominant-baseline="text-before-edge">Usa</text></g></svg>